<svg width="32" height="32" viewBox="0 0 32 32" fill="none" xmlns="http://www.w3.org/2000/svg">
<path fill-rule="evenodd" clip-rule="evenodd" d="M17.5221 5.08339L19.8986 11.4865L26.4675 11.8532C26.7923 11.8709 27.1046 11.9917 27.3634 12.1999C27.6221 12.4081 27.8154 12.694 27.9178 13.0201C28.0202 13.3463 28.0271 13.6975 27.9374 14.0278C27.8478 14.3581 27.6659 14.6521 27.4154 14.8714L22.3018 19.2013L24.0108 25.8583C24.091 26.194 24.0735 26.5474 23.9605 26.8725C23.8475 27.1975 23.6444 27.4789 23.3776 27.68C23.1108 27.8811 22.7927 27.9925 22.465 27.9996C22.1373 28.0068 21.8152 27.9093 21.5408 27.72L16 23.9684L10.4725 27.6918C10.2001 27.8822 9.87967 27.9817 9.55299 27.9773C9.2263 27.9729 8.90842 27.8648 8.64064 27.6671C8.37285 27.4694 8.16753 27.1912 8.05136 26.8686C7.93518 26.546 7.91352 26.194 7.98918 25.8583L9.6848 19.2295L4.58458 14.8714C4.33414 14.6521 4.15219 14.3581 4.06255 14.0278C3.97291 13.6975 3.97976 13.3463 4.08219 13.0201C4.18462 12.694 4.37787 12.4081 4.63664 12.1999C4.89542 11.9917 5.20767 11.8709 5.53253 11.8532L12.1014 11.4865L14.4779 5.08339C14.6007 4.76326 14.8112 4.48913 15.0823 4.29612C15.3535 4.10311 15.673 4 16 4C16.327 4 16.6465 4.10311 16.9177 4.29612C17.1888 4.48913 17.3993 4.76326 17.5221 5.08339Z" fill="#DEBE1A" stroke="#DEBE1A" stroke-width="1.5" stroke-linecap="round" stroke-linejoin="round"/>
</svg>
